<?xml version="1.0" encoding="UTF-8"?>
<svg width="48px" height="48px" viewBox="0 0 24 24" version="1.1" xmlns="http://www.w3.org/2000/svg" xmlns:xlink="http://www.w3.org/1999/xlink">
    <title>messenger</title>
    <defs>
        <rect id="path-1" x="0" y="0" width="24" height="24"></rect>
        <radialGradient cx="19.2474387%" cy="99.4651948%" fx="19.2474387%" fy="99.4651948%" r="108.959789%" id="radialGradient-3">
            <stop stop-color="#0099FF" offset="0%"></stop>
            <stop stop-color="#A033FF" offset="60.9753877%"></stop>
            <stop stop-color="#FF5280" offset="93.482299%"></stop>
            <stop stop-color="#FF7061" offset="100%"></stop>
        </radialGradient>
    </defs>
    <g id="messenger" stroke="none" stroke-width="1" fill="none" fill-rule="evenodd">
        <g id="logo">
            <mask id="mask-2" fill="white">
                <use xlink:href="#path-1"></use>
            </mask>
            <g id="Mask"></g>
            <g mask="url(#mask-2)" fill-rule="nonzero" id="Path">
                <g transform="translate(1.062500, 1.335938)">
                    <path d="M10.9375,0 C4.77607812,0 0,4.51325 0,10.609375 C0,13.79805 1.3068125,16.553425 3.4349875,18.4565938 C3.61364063,18.6165 3.72148438,18.8405 3.7288125,19.08025 L3.78837812,21.0258125 C3.80740938,21.6464063 4.44843438,22.0502188 5.01630937,21.7995313 L7.18725,20.8411875 C7.37128437,20.7600313 7.5775,20.7449375 7.77142187,20.7983125 C8.76903125,21.072625 9.8308,21.21875 10.9375,21.21875 C17.0989219,21.21875 21.875,16.7055 21.875,10.609375 C21.875,4.51325 17.0989219,0 10.9375,0 Z" fill="url(#radialGradient-3)"></path>
                    <path d="M4.369575,13.7120375 L7.58246563,8.614725 C8.09353125,7.80381875 9.1879375,7.6019125 9.95476563,8.17700625 L12.5101375,10.0935406 C12.7445937,10.2694156 13.0671844,10.268475 13.3006562,10.0912875 L16.7518094,7.47208438 C17.2124531,7.12252188 17.8137313,7.67377188 17.5054688,8.1629625 L14.2925781,13.2603188 C13.7814688,14.0711813 12.6870625,14.2731313 11.9202781,13.6979938 L9.36484062,11.7814156 C9.13040625,11.6055844 8.80779375,11.606525 8.57434375,11.7837125 L5.12316875,14.4029156 C4.66254688,14.7524563 4.06124688,14.2012063 4.369575,13.7120375 Z" fill="#FFFFFF"></path>
                </g>
            </g>
        </g>
    </g>
</svg>