<?xml version="1.0" encoding="UTF-8"?>
<svg width="48px" height="48px" viewBox="0 0 24 24" version="1.1" xmlns="http://www.w3.org/2000/svg" xmlns:xlink="http://www.w3.org/1999/xlink">
    <title>telegram</title>
    <defs>
        <linearGradient x1="50%" y1="0%" x2="50%" y2="99.2583404%" id="linearGradient-1">
            <stop stop-color="#2AABEE" offset="0%"></stop>
            <stop stop-color="#229ED9" offset="100%"></stop>
        </linearGradient>
    </defs>
    <g id="telegram" stroke="none" stroke-width="1" fill="none" fill-rule="evenodd">
        <g id="Logo" fill-rule="nonzero">
            <circle id="Oval" fill="url(#linearGradient-1)" cx="12" cy="12" r="12"></circle>
            <path d="M5.43188206,11.8733297 C8.93012575,10.3492004 11.2628361,9.34440118 12.4300132,8.85893186 C15.7625408,7.47281832 16.4550115,7.23203556 16.9063542,7.224 C17.0056229,7.22233608 17.2275801,7.24693783 17.3713547,7.36360097 C17.4927551,7.46210904 17.5261572,7.59517944 17.5421412,7.6885759 C17.5581252,7.78197235 17.5780291,7.99473187 17.562207,8.16097598 C17.3816162,10.0584597 16.6002025,14.6631522 16.2026636,16.7883664 C16.0344499,17.6876242 15.7032321,17.9891408 15.3825748,18.0186481 C14.6857124,18.0827745 14.1565468,17.5581128 13.4816014,17.1156777 C12.4254453,16.423354 11.8287842,15.9923803 10.8036018,15.3168003 C9.61882608,14.5360507 10.3868669,14.1069372 11.0620671,13.4056455 C11.2387702,13.2221142 14.3091619,10.4293555 14.3685894,10.1760085 C14.3760218,10.1443232 14.3829195,10.0262155 14.3127538,9.96385034 C14.242588,9.90148514 14.1390295,9.92281162 14.0642988,9.93977275 C13.9583702,9.96381463 12.271147,11.0790066 9.00262927,13.2853485 C8.52371659,13.614207 8.08993236,13.7744378 7.70127658,13.7660411 C7.27281475,13.7567844 6.4486261,13.5237823 5.83592654,13.3246178 C5.08442561,13.0803345 4.48714762,12.9511801 4.53915713,12.5363114 C4.56624689,12.3202221 4.86382186,12.0992282 5.43188206,11.8733297 Z" id="Path-3" fill="#FFFFFF"></path>
        </g>
    </g>
</svg>