<?xml version="1.0" encoding="UTF-8"?>
<svg width="48px" height="48px" viewBox="0 0 24 24" version="1.1" xmlns="http://www.w3.org/2000/svg" xmlns:xlink="http://www.w3.org/1999/xlink">
    <title>viber</title>
    <g id="viber" stroke="none" stroke-width="1" fill="none" fill-rule="evenodd">
        <g id="Group-Copy">
            <circle id="Oval" fill="#7360F2" cx="12" cy="12" r="12"></circle>
            <g id="icon_new-purple" transform="translate(5.250000, 5.250000)" fill="#FFFFFF" fill-rule="nonzero">
                <path d="M12.6083208,1.46176912 C12.235907,1.11814093 10.7309595,0.0256371814 7.37878561,0.0107946027 C7.37878561,0.0107946027 3.42571214,-0.227586207 1.49865067,1.54002999 C0.425937031,2.61296852 0.0485757121,4.18290855 0.00877061469,6.12931034 C-0.0310344828,8.07571214 -0.0825337331,11.7233883 3.43358321,12.7124438 L3.43695652,12.7124438 L3.43470765,14.2216642 C3.43470765,14.2216642 3.41221889,14.8326837 3.81454273,14.9572714 C4.3011994,15.1083958 4.5868066,14.644003 5.05142429,14.1434033 C5.30644678,13.8685907 5.65862069,13.4649175 5.92398801,13.1563718 C8.32871064,13.3587706 10.1781859,12.8961769 10.3882309,12.8278111 C10.8737631,12.6703898 13.6212144,12.3182159 14.068066,8.67098951 C14.5293103,4.91154423 13.8449775,2.53358321 12.6083208,1.46176912 Z M13.0158171,8.40134933 C12.6386807,11.4467766 10.4102699,11.6381559 9.9994003,11.76994 C9.82466267,11.8261619 8.20029985,12.2302849 6.15764618,12.0969265 C6.15764618,12.0969265 4.6356072,13.9331334 4.1601949,14.4105697 C4.08598201,14.4852324 3.99872564,14.5153673 3.94047976,14.5005247 C3.85862069,14.4805097 3.83613193,14.3835832 3.83703148,14.241904 C3.83838081,14.0395052 3.85007496,11.733958 3.85007496,11.733958 C3.85007496,11.733958 3.84827586,11.733958 3.85007496,11.733958 C0.875712144,10.9081709 1.04910045,7.8035982 1.08283358,6.17788606 C1.11656672,4.55217391 1.42196402,3.22038981 2.32916042,2.32466267 C3.95914543,0.848275862 7.31694153,1.06889055 7.31694153,1.06889055 C10.1525487,1.08125937 11.5113193,1.93515742 11.8263868,2.22121439 C12.8725637,3.11694153 13.4055472,5.26034483 13.0158171,8.40044978 L13.0158171,8.40134933 Z" id="Shape"></path>
                <path d="M7.63558917,4.68354083 C8.45243149,4.72615572 8.90640447,5.19553747 8.94804303,6.03490994 C8.95323059,6.1394836 8.87266223,6.22846266 8.76808857,6.23365023 C8.6635149,6.23883779 8.57453584,6.15826943 8.56934828,6.05369576 C8.53722372,5.4061117 8.23587436,5.09453393 7.61583512,5.06218631 C7.51127506,5.05673138 7.43093447,4.96754661 7.4363894,4.86298655 C7.44184433,4.75842648 7.5310291,4.6780859 7.63558917,4.68354083 Z" id="Path"></path>
                <path d="M7.35191841,3.66639773 C8.15914296,3.7254746 8.7950125,4.00342233 9.25567175,4.5062683 C9.71486407,5.00802939 9.936892,5.6342828 9.92087015,6.37449231 C9.9186044,6.47917005 9.83190957,6.56219137 9.72723183,6.55992562 C9.62255409,6.55765987 9.53953277,6.47096504 9.54179852,6.3662873 C9.55576167,5.72118947 9.36744477,5.19002159 8.97602809,4.76231915 C8.5846642,4.33511457 8.03971302,4.09690857 7.3242435,4.0445468 C7.21982052,4.03690459 7.14136421,3.94605779 7.14900642,3.84163481 C7.15664864,3.73721183 7.24749543,3.65875551 7.35191841,3.66639773 Z" id="Path"></path>
                <path d="M7.00521848,2.68245867 C8.10809315,2.69014508 9.03717656,3.05814582 9.78203508,3.78426478 C10.529568,4.51299085 10.9071993,5.50834205 10.9167168,6.75845261 C10.9175078,6.86315184 10.8332781,6.94867314 10.7285789,6.94947538 C10.6238796,6.95026641 10.5383583,6.86603672 10.5375617,6.76133749 C10.5287827,5.60755001 10.1881231,4.70964783 9.51736521,4.05576521 C8.84393289,3.39927547 8.00914823,3.06862553 7.00257762,3.06161459 C6.8978779,3.06088534 6.81359319,2.97541827 6.81431774,2.87071855 C6.81505169,2.76601883 6.90051876,2.68173412 7.00521848,2.68245867 Z" id="Path"></path>
                <path d="M7.66326837,8.58350825 C7.66326837,8.58350825 7.92976012,8.605997 8.07323838,8.42923538 L8.3529985,8.07728636 C8.48793103,7.90277361 8.81356822,7.79145427 9.13245877,7.96911544 C9.37142801,8.1054034 9.60342729,8.2535647 9.82758621,8.41304348 C10.0392054,8.56866567 10.4725637,8.93028486 10.473913,8.93028486 C10.6803598,9.10457271 10.728036,9.36049475 10.5874813,9.63035982 C10.5874813,9.63193403 10.5863568,9.63463268 10.5863568,9.63598201 C10.4315516,9.90434365 10.2350145,10.1463522 10.0041229,10.3529235 C10.0014243,10.3542729 10.0014243,10.3556222 9.99895052,10.3569715 C9.79835082,10.5245877 9.60127436,10.6198651 9.40772114,10.6428036 C9.37922378,10.6477913 9.35026095,10.6496015 9.32136432,10.6482009 C9.2360133,10.649025 9.15109646,10.6359609 9.06994003,10.6095202 L9.06364318,10.6002999 C8.76544228,10.5161919 8.26754123,10.3056972 7.43838081,9.84827586 C6.95855951,9.58669042 6.50175463,9.28493739 6.07286357,8.94625187 C5.85789062,8.77659022 5.65283089,8.59473206 5.45869565,8.40157421 L5.438006,8.38088456 L5.41731634,8.3601949 L5.41731634,8.3601949 L5.39662669,8.33950525 C5.38965517,8.33275862 5.38290855,8.32578711 5.37593703,8.31881559 C5.18277919,8.12468035 5.00092102,7.91962063 4.83125937,7.70464768 C4.49262291,7.27580055 4.19087234,6.81907463 3.92923538,6.33935532 C3.47181409,5.50997001 3.26131934,5.01251874 3.17721139,4.71386807 L3.167991,4.70757121 C3.14162662,4.62640216 3.12863849,4.54148562 3.12953523,4.45614693 C3.12796099,4.42725826 3.12969641,4.39828433 3.13470765,4.3697901 C3.15884558,4.17653673 3.25427286,3.97931034 3.42098951,3.77811094 C3.42233883,3.77563718 3.42368816,3.77563718 3.42503748,3.77293853 C3.6315518,3.54204909 3.87357267,3.34557794 4.14197901,3.19092954 C4.14332834,3.19092954 4.14602699,3.18958021 4.1476012,3.18958021 C4.41746627,3.04902549 4.67338831,3.09670165 4.84745127,3.30202399 C4.8488006,3.30337331 5.20974513,3.73673163 5.36469265,3.94835082 C5.52419057,4.17272918 5.67235213,4.40495403 5.80862069,4.64415292 C5.98628186,4.96281859 5.87496252,5.28913043 5.70044978,5.42361319 L5.34850075,5.70337331 C5.17083958,5.84685157 5.19422789,6.11334333 5.19422789,6.11334333 C5.19422789,6.11334333 5.71551724,8.08628186 7.66326837,8.58350825 Z" id="Path"></path>
            </g>
        </g>
    </g>
</svg>